<svg xmlns="http://www.w3.org/2000/svg" width="500" height="157" viewBox="0 0 500 157" version="1.1"><path d="M 110.403 33.897 C 98.109 34.486, 95.683 34.893, 91.442 37.075 C 87.685 39.009, 86.001 40.701, 84.039 44.512 C 81.703 49.053, 81.500 50.487, 81.500 62.473 C 81.500 74.108, 81.743 75.955, 83.773 79.756 C 85.024 82.097, 87.574 85.013, 89.440 86.236 L 92.833 88.461 88.252 94.980 C 85.733 98.566, 81.484 104.650, 78.810 108.500 L 73.947 115.500 84.579 115.785 C 91.681 115.975, 95.684 115.677, 96.636 114.887 C 97.420 114.237, 101.639 108.628, 106.011 102.424 C 111.591 94.506, 114.637 91.048, 116.230 90.822 C 118.333 90.524, 118.521 89.939, 118.790 82.877 C 119.121 74.160, 118.994 74.039, 109.405 74.014 C 103.015 73.997, 101.466 72.390, 100.558 64.835 C 99.646 57.245, 101.289 51.221, 104.615 49.956 C 105.999 49.430, 118.251 49, 131.843 49 C 161.627 49, 161 48.793, 161 58.608 C 161 65.006, 160.952 65.121, 157.750 66.378 C 155.935 67.091, 152.202 67.469, 149.295 67.234 L 144.091 66.813 143.795 60.657 L 143.500 54.500 134 54.500 L 124.500 54.500 124.236 85.250 L 123.971 116 146.236 115.990 C 167.673 115.981, 168.693 115.891, 173.693 113.563 C 180.256 110.507, 183.083 105.520, 183.783 95.763 C 184.425 86.824, 182.676 80.801, 178.331 76.986 C 176.461 75.344, 174.396 74, 173.742 74 C 173.089 74, 174.007 72.673, 175.782 71.052 C 179.983 67.215, 181 64.317, 181 56.178 C 181 43.740, 177.559 38.042, 168.528 35.526 C 162.410 33.821, 130.589 32.930, 110.403 33.897 M 323.250 48.611 C 322.301 49.033, 322 54.809, 322 72.564 L 322 95.962 324.498 96.589 C 329.514 97.848, 349.317 96.515, 352.741 94.688 C 359.767 90.938, 361.851 82.834, 357.637 75.644 C 355.153 71.405, 355.098 71.010, 356.512 67.625 C 358.472 62.935, 358.389 60.678, 356.095 56.210 C 352.908 50.001, 349.264 48.566, 336 48.292 C 329.675 48.162, 323.938 48.305, 323.250 48.611 M 367.325 48.778 C 366.138 49.533, 365.559 52.640, 365.844 56.731 C 365.948 58.209, 366.844 59.174, 368.500 59.589 C 370.995 60.216, 371 60.239, 371 72.389 L 371 84.562 368 85.694 C 365.375 86.685, 365 87.313, 365 90.713 C 365 92.851, 365.540 95.140, 366.200 95.800 C 367.457 97.057, 385.436 97.537, 388.418 96.393 C 389.526 95.968, 390 94.479, 390 91.419 C 390 87.578, 389.639 86.864, 387 85.500 L 384 83.949 384 72.450 C 384 61.281, 384.068 60.925, 386.364 60.052 C 388.932 59.075, 390 57.148, 390 53.490 C 390 49.036, 387.665 47.999, 377.679 48.015 C 372.630 48.024, 367.971 48.367, 367.325 48.778 M 399.250 48.721 C 398.299 49.060, 398 54.733, 398 72.476 C 398 98.042, 397.739 97, 404.148 97 C 410.313 97, 411 95.881, 411 85.828 L 411 76.726 415.957 81.363 C 418.684 83.913, 421.178 86, 421.500 86 C 421.822 86, 424.316 83.913, 427.043 81.363 L 432 76.726 432 85.663 C 432 91.281, 432.446 95.046, 433.200 95.800 C 434.754 97.354, 442.246 97.354, 443.800 95.800 C 445.558 94.042, 445.511 49.048, 443.750 48.882 C 440.837 48.605, 439.367 49.254, 437.132 51.801 C 429.645 60.333, 421.729 67.822, 420.693 67.352 C 420.037 67.054, 416.350 63.243, 412.500 58.882 C 405.442 50.887, 401.548 47.901, 399.250 48.721 M 334.756 62.494 C 334.145 65.693, 336.026 67.220, 340.084 66.818 C 347.049 66.129, 346.070 60, 338.994 60 C 335.779 60, 335.164 60.362, 334.756 62.494 M 334.675 79.404 C 334.379 80.175, 334.383 81.750, 334.685 82.904 C 335.134 84.622, 336.008 85, 339.535 85 C 341.901 85, 344.548 84.727, 345.418 84.393 C 347.290 83.675, 347.494 80.894, 345.800 79.200 C 344.080 77.480, 335.352 77.640, 334.675 79.404 M 144 92 L 144 101 151.777 101 C 162.512 101, 164 99.861, 164 91.643 C 164 88.121, 163.477 84.877, 162.800 84.200 C 162.048 83.448, 158.311 83, 152.800 83 L 144 83 144 92" stroke="none" fill="#2e61f5" fill-rule="evenodd"/><path d="M 433.667 25.667 C 433.300 26.033, 433 27.330, 433 28.547 L 433 30.761 376.750 31.363 C 345.813 31.694, 294.545 32.229, 262.823 32.552 L 205.146 33.139 204.823 30.320 C 204.501 27.511, 204.469 27.499, 196.330 27.211 C 186.675 26.869, 186.429 27.159, 187.544 37.567 L 188.241 44.077 196.371 43.788 C 204.324 43.506, 204.507 43.443, 204.805 40.865 L 205.111 38.231 241.305 37.631 C 261.212 37.302, 312.454 36.761, 355.175 36.430 L 432.851 35.828 433.175 38.664 C 433.500 41.496, 433.512 41.500, 441.750 41.790 L 450 42.081 450 33.540 L 450 25 442.167 25 C 437.858 25, 434.033 25.300, 433.667 25.667 M 438 33.500 C 438 36.833, 438.167 37, 441.500 37 C 444.833 37, 445 36.833, 445 33.500 C 445 30.167, 444.833 30, 441.500 30 C 438.167 30, 438 30.167, 438 33.500 M 192 35.500 C 192 38.917, 192.095 39, 196 39 C 199.905 39, 200 38.917, 200 35.500 C 200 32.083, 199.905 32, 196 32 C 192.095 32, 192 32.083, 192 35.500 M 193.461 49.681 C 192.133 51.010, 191.996 54.261, 192.466 73.305 C 192.861 89.334, 193.351 95.605, 194.255 96.179 C 195.894 97.220, 202.147 97.193, 203.811 96.138 C 204.565 95.660, 205.125 93.437, 205.130 90.904 C 205.143 84.475, 205.788 83, 208.589 83 C 210.448 83, 211.740 84.153, 213.914 87.750 C 218.919 96.036, 220.230 97, 226.496 97 C 230.529 97, 232.222 96.586, 232.640 95.495 C 232.963 94.653, 231.362 91.032, 229.005 87.272 C 225.705 82.008, 225.029 80.222, 225.886 79.027 C 232.925 69.200, 232.618 59.064, 225.091 52.730 C 220.752 49.079, 216.132 48.027, 204.711 48.089 C 197.354 48.129, 194.628 48.515, 193.461 49.681 M 239.571 49.571 C 237.939 51.204, 237.489 55.688, 238.765 57.600 C 239.169 58.205, 240.512 59.234, 241.750 59.885 C 243.888 61.012, 244 61.653, 244 72.816 L 244 84.562 241 85.694 C 238.282 86.720, 238 87.247, 238 91.306 C 238 94.469, 238.465 95.965, 239.582 96.393 C 242.564 97.537, 260.543 97.057, 261.800 95.800 C 262.460 95.140, 263 92.851, 263 90.713 C 263 87.313, 262.625 86.685, 260 85.694 L 257 84.562 257 72.389 C 257 60.239, 257.005 60.216, 259.500 59.589 C 261.739 59.027, 262 58.453, 262 54.088 C 262 48.147, 261.710 48, 249.990 48 C 243.280 48, 240.763 48.380, 239.571 49.571 M 272.231 48.836 C 271.252 49.457, 271.024 54.994, 271.231 73.071 L 271.500 96.500 277.500 96.500 L 283.500 96.500 283.784 85.750 C 283.940 79.838, 284.366 75, 284.731 75 C 285.096 75, 290.451 79.989, 296.631 86.086 C 304.053 93.408, 308.471 97.056, 309.644 96.830 C 312.388 96.302, 312.949 91.356, 312.722 69.655 C 312.539 52.173, 312.313 49.703, 310.823 48.905 C 308.389 47.603, 301.609 47.791, 300.200 49.200 C 299.419 49.981, 299 54.066, 299 60.897 L 299 71.394 287.157 59.697 C 280.644 53.264, 274.906 48.007, 274.407 48.015 C 273.908 48.024, 272.929 48.393, 272.231 48.836 M 205.607 61.582 C 205.273 62.452, 205 64.215, 205 65.500 C 205 70.028, 205.978 71, 210.536 71 C 215.627 71, 218 69.081, 218 64.964 C 218 61.465, 215.689 60, 210.173 60 C 207.485 60, 206.019 60.508, 205.607 61.582 M 192.750 107.612 C 190.137 109.581, 188.018 111.936, 188.039 112.846 C 188.089 114.969, 196.550 121.232, 198.794 120.806 C 199.804 120.615, 200.629 119.364, 200.816 117.741 L 201.133 115 325.566 115 L 450 115 450 112.500 L 450 110 325.566 110 L 201.133 110 200.816 107.259 C 200.370 103.391, 198.226 103.485, 192.750 107.612" stroke="none" fill="#040404" fill-rule="evenodd"/></svg>